<?xml version="1.0" encoding="UTF-8" standalone="no"?>
<svg
   width="139.26698pt"
   height="74.88739pt"
   viewBox="0 0 139.26698 74.88739"
   version="1.1"
   id="svg1364"
   sodipodi:docname="angel.svg"
   inkscape:version="1.1 (c68e22c387, 2021-05-23)"
   xmlns:inkscape="http://www.inkscape.org/namespaces/inkscape"
   xmlns:sodipodi="http://sodipodi.sourceforge.net/DTD/sodipodi-0.dtd"
   xmlns="http://www.w3.org/2000/svg"
   xmlns:svg="http://www.w3.org/2000/svg">
  <defs
     id="defs1368" />
  <sodipodi:namedview
     id="namedview1366"
     pagecolor="#505050"
     bordercolor="#eeeeee"
     borderopacity="1"
     inkscape:pageshadow="0"
     inkscape:pageopacity="0"
     inkscape:pagecheckerboard="0"
     inkscape:document-units="pt"
     showgrid="false"
     fit-margin-top="0"
     fit-margin-left="0"
     fit-margin-right="0"
     fit-margin-bottom="0"
     inkscape:zoom="0.3165639"
     inkscape:cx="159.52545"
     inkscape:cy="289.04117"
     inkscape:window-width="1920"
     inkscape:window-height="1001"
     inkscape:window-x="-9"
     inkscape:window-y="-9"
     inkscape:window-maximized="1"
     inkscape:current-layer="#3f3f3fff" />
  <g
     id="#3f3f3fff"
     transform="translate(-39.108836,-24.54951)">
    <path
       fill="#3f3f3f"
       opacity="1"
       d="m 117.05939,24.630598 c 1.75,-0.59 2.81,2.22 0.82,2.61 -1.64,0.61 -2.57,-2.25 -0.82,-2.61 z"
       id="path1305"
       style="fill:#6ececb;fill-opacity:1" />
    <path
       fill="#3f3f3f"
       opacity="1"
       d="m 95.769389,25.050598 c 0.53,0.46 1.6,1.39 2.14,1.85 -0.6,0.89 -1.19,1.78 -1.79,2.66 -0.67,-1.44 -1.05,-2.98 -0.35,-4.51 z"
       id="path1307"
       style="fill:#6ececb;fill-opacity:1" />
    <path
       fill="#3f3f3f"
       opacity="1"
       d="m 136.61939,33.230598 c 0.7,-0.8 1.42,-1.59 2.12,-2.38 1.08,0.87 2.06,2.02 3.53,2.2 -1.21,0.78 -2.36,1.63 -3.49,2.51 -1.19,-0.98 -2.4,-1.93 -3.62,-2.88 0.37,0.14 1.1,0.41 1.46,0.55 z"
       id="path1309"
       style="fill:#6ececb;fill-opacity:1" />
    <path
       fill="#3f3f3f"
       opacity="1"
       d="m 70.909389,35.930598 c 1.05,-0.48 2.11,-0.95 3.17,-1.42 -0.05,1.29 -0.12,2.57 -0.22,3.85 -0.99,-0.8 -1.97,-1.62 -2.95,-2.43 z"
       id="path1311"
       style="fill:#6ececb;fill-opacity:1" />
    <path
       fill="#3f3f3f"
       opacity="1"
       d="m 45.689389,38.530598 c 0.91,-0.31 1.82,-0.62 2.73,-0.93 2.47,5.2 5.61,10.24 10.46,13.54 8.84,7.42 20.19,10.81 29.23,17.91 5.85,5.08 11.6,11.3 12.800001,19.26 0.07,1.99 0.39,4.36 -1.310001,5.82 -3.31,2.71 -7.72,3.24 -11.84,3.41 -4.37,0.16 -8.5,2.15 -12.91,1.85 -7.59,-0.5 -15.56,-2.55 -21.07,-8.1 l -0.55,1.45 c 0.08,-0.64 0.22,-1.27 0.31,-1.91 -1.21,-2.11 -1.84,-4.69 -3.96,-6.14 -4.16,-3.16 -7.67,-7.68 -8.02,-13.07 -2.29,-3.16 -3.82,-7.84 -0.65,-11 -0.85,-2.46 -1.99,-5.26 -0.87,-7.82 0.85,-1.98 2.91,-2.82 4.76,-3.58 -1.4,-3.58 -0.9,-7.36 0.89,-10.69 m 0.12,7.87 c 0.88,5.29 5.22,8.85 8.33,12.88 -3.73,-2.18 -6.62,-5.43 -9.2,-8.83 -2.04,1.14 -4.45,3.19 -3.55,5.82 1.84,7.18 9.08,10.38 14.63,14.25 -5.64,-1.2 -10.2,-5.02 -14.2,-8.97 -2.24,2.96 -0.59,6.85 1.55,9.33 4.1,4.75 9.86,7.58 15.45,10.18 -6.09,-0.82 -11.28,-4.27 -15.95,-8.05 1.91,5.92 6.66,10.42 11.98,13.38 3.46,1.9 7.5,2.64 10.67,5.07 -4.53,-0.59 -8.72,-2.46 -12.88,-4.25 4.1,6.56 12.09,9.03 19.28,10.36 5.67,1.49 11.2,-1.31 16.87,-1.37 3.76,-0.32 8.52,-0.52 10.75,-4.05 0.960001,-5.81 -2.45,-11.32 -5.94,-15.7 -10.82,-13.42 -29.67,-16.09 -40.98,-29 -2.26,-2.49 -3.51,-5.64 -5.13,-8.54 -1.7,2.09 -2.32,4.87 -1.68,7.49 z"
       id="path1313"
       style="fill:#6ececb;fill-opacity:1" />
    <path
       fill="#3f3f3f"
       opacity="1"
       d="m 169.34939,37.470598 c 1.23,0.88 2.42,1.82 3.59,2.78 0.33,2.99 0.39,6.01 -0.05,9 1.69,0.84 3.88,1.41 4.51,3.45 1.36,2.61 0.06,5.54 -0.95,8.02 2.44,2.08 2.35,5.65 0.91,8.28 -1.63,2.96 -1.83,6.47 -3.58,9.37 -1.8,3.13 -4.72,5.37 -7.48,7.59 -1.67,6.15 -7.53,9.86 -13.29,11.62 -5.39,1.46 -11.15,2.720002 -16.66,1.09 -6.58,-1.98 -14.63,-0.18 -19.77,-5.74 0.09,-2.77 0.35,-5.59 -0.3,-8.32 0.3,-0.13 0.91,-0.4 1.22,-0.54 3.5,-7.38 9.2,-13.61 16.09,-17.97 9.21,-5.81 19.73,-9.64 27.75,-17.26 3.68,-3 5.52,-7.47 8.01,-11.37 m -6.49,11.98 c -7.05,6.72 -15.9,10.99 -24.45,15.44 -7.7,4.28 -14.91,10.19 -18.86,18.23 -1.35,3.02 -2.37,6.54 -1.3,9.81 1.87,1.76 4.45,2.46 6.94,2.77 0.79,-1.3 1.85,-0.88 2.31,0.41 6.14,-0.17 12.03,3.01 18.18,1.5 7,-1.47 15.07,-3.65 18.88,-10.32 -4.16,1.72 -8.31,3.89 -12.93,3.92 9.05,-3.65 19.69,-7.82 22.87,-18.09 -4.64,3.67 -9.76,7.13 -15.78,7.86 6.55,-2.93 13.45,-6.45 17.26,-12.83 1.25,-2.01 1.09,-4.65 -0.36,-6.52 -4.03,3.83 -8.49,7.73 -14.08,8.9 1.43,-1.08 2.96,-2.04 4.5,-2.98 5.05,-3.23 11.47,-8.08 9.77,-14.95 -1.1,-0.61 -2.22,-1.18 -3.35,-1.71 -2.79,3.01 -5.33,6.38 -9.07,8.31 2.43,-3.06 5.44,-5.73 7.08,-9.34 1.84,-3.37 1.93,-7.68 -0.14,-10.96 -2.42,3.56 -4.04,7.75 -7.47,10.55 z"
       id="path1315"
       style="fill:#6ececb;fill-opacity:1" />
    <path
       fill="#3f3f3f"
       opacity="1"
       d="m 87.519389,47.710598 c 1.85,-7.69 11.14,-8.84 17.740001,-9.3 -0.86,0.29 -2.56,0.87 -3.42,1.16 3.03,2.03 6.71,0.41 10.07,0.93 4.95,0.49 10.78,1.17 13.73,5.75 -1.79,5.98 -8.76,7.03 -14.02,7.99 -6.28,0.32 -12.910001,0.7 -18.790001,-1.95 -2.21,-0.96 -4.15,-3.37 -2.99,-5.85 3.09,-3.58 8.17,-5.11 12.750001,-5.09 -0.69,-0.51 -1.37,-1.02 -2.06,-1.53 -5.150001,1.01 -10.140001,3.28 -13.010001,7.89 m 14.400001,-5.24 c -4.040001,0.69 -8.530001,1.83 -11.150001,5.24 1.1,3.45 5.41,3.83 8.42,4.52 7.910001,0.74 16.910001,0.86 23.660001,-3.89 2.22,-1.48 0.14,-3.65 -1.57,-4.3 -6.06,-2.62 -12.93,-2.59 -19.36,-1.57 z"
       id="path1317"
       style="fill:#6ececb;fill-opacity:1" />
    <path
       fill="#3f3f3f"
       opacity="1"
       d="m 126.29939,44.580598 c 0.93,1.37 1.53,2.86 1.82,4.49 -4.16,4.6 -10.21,7.24 -16.37,7.51 5.36,-1.82 11.31,-3.12 15.1,-7.72 -0.14,-1.07 -0.41,-3.21 -0.55,-4.28 z"
       id="path1319"
       style="fill:#6ececb;fill-opacity:1" />
    <path
       fill="#3f3f3f"
       opacity="1"
       d="m 135.11939,49.210598 c 0.89,1.27 1.92,2.45 3.08,3.49 -1.37,0.67 -2.34,1.78 -3,3.13 -0.36,-1.66 -1.53,-2.61 -3.06,-3.13 1.35,-0.85 2.83,-1.7 2.98,-3.49 z"
       id="path1321"
       style="fill:#6ececb;fill-opacity:1" />
    <path
       fill="#3f3f3f"
       opacity="1"
       d="m 80.369389,50.520598 c 0.73,1.35 1.76,2.49 3.07,3.32 -1.65,0.92 -2.38,2.6 -3.19,4.2 -0.2,-2.09 -0.76,-4.03 -3.19,-4.07 1.73,-0.51 2.96,-1.62 3.31,-3.45 z"
       id="path1323"
       style="fill:#6ececb;fill-opacity:1" />
    <path
       fill="#3f3f3f"
       opacity="1"
       d="m 56.399389,59.260598 c 5.2,-2.53 10.09,2.59 14.05,5.41 -4.64,-0.77 -8.04,-5.47 -12.98,-4.69 3.41,7.44 12.63,7.82 18.32,12.68 -5.62,-0.74 -10.27,-5.48 -16.16,-4.28 0.32,1.23 0.38,2.66 1.4,3.57 4.55,5.09 11.99,5.5 17.31,9.49 -3.94,-0.96 -7.57,-2.94 -11.57,-3.65 -1.67,-0.56 -3.07,0.4 -4.39,1.28 4.89,6.11 12.8,7.78 19.77,10.28 -5.12,0.03 -9.89,-2 -14.63,-3.66 0.22,2.68 2.6,4.25 4.81,5.26 4.02,1.92 8.54,2.2 12.79,3.38 -6.48,0.45 -14.04,-0.71 -18.3,-6.12 -0.14,-1.14 -0.17,-2.28 -0.09,-3.42 -1.95,-1.86 -4.82,-3.52 -5.01,-6.5 0.82,-0.7 1.67,-1.35 2.56,-1.97 -2.36,-1.78 -5.19,-3.53 -6.02,-6.58 0.04,-1.67 1.63,-2.45 2.95,-3.06 -2.21,-2 -4.5,-4.27 -4.81,-7.42 z"
       id="path1325"
       style="fill:#6ececb;fill-opacity:1" />
    <path
       fill="#3f3f3f"
       opacity="1"
       d="m 147.09939,64.570598 c 3.6,-2.85 7.55,-5.6 12.13,-6.54 0.49,0.6 1.46,1.8 1.94,2.4 -1.15,2.43 -2.86,4.53 -4.92,6.26 1.39,0.7 3.41,1.57 2.78,3.56 -1.02,2.71 -3.6,4.41 -5.83,6.07 1.04,0.86 2.04,1.77 3.04,2.69 -1.51,2.26 -3.42,4.2 -5.59,5.83 0.12,1.09 0.23,2.18 0.34,3.28 -4.51,5.17 -11.93,7.02 -18.52,5.86 5.31,-0.76 10.9,-1.47 15.42,-4.61 1.33,-0.73 1.72,-2.31 2.3,-3.58 -2.15,0.58 -4.27,1.28 -6.4,1.95 0.22,0.25 0.65,0.75 0.87,1 -3.08,-0.68 -6.12,0.63 -9.21,0.43 7.1,-2.1 14.73,-4.22 19.75,-10.07 -1.51,-1.26 -3.49,-1.91 -5.39,-1.15 -3.55,0.96 -6.91,2.5 -10.49,3.36 5.34,-3.83 12.62,-4.35 17.18,-9.33 1,-0.94 1.17,-2.34 1.53,-3.58 -1.62,-0.11 -3.24,-0.15 -4.85,-0.13 -0.16,0.4 -0.47,1.21 -0.63,1.61 -1.87,-0.49 -3.73,0.31 -5.56,0.59 0.69,0.37 1.39,0.74 2.09,1.09 l -2.41,0.63 c 0.12,-0.26 0.36,-0.77 0.49,-1.03 -1.81,0.56 -3.63,1.06 -5.47,1.51 5.78,-4.81 14.93,-5.3 18.42,-12.72 -5.01,-1.01 -8.26,4.15 -13.01,4.62 z"
       id="path1327"
       style="fill:#6ececb;fill-opacity:1" />
    <path
       fill="#3f3f3f"
       opacity="1"
       d="m 118.43939,60.690598 c 0.18,0.39 0.52,1.19 0.7,1.58 0.36,0.14 1.1,0.43 1.47,0.57 -0.78,0.42 -1.56,0.85 -2.33,1.29 -0.51,-0.29 -1.52,-0.86 -2.02,-1.15 0.73,-0.76 1.46,-1.52 2.18,-2.29 z"
       id="path1329"
       style="fill:#6ececb;fill-opacity:1" />
    <path
       fill="#3f3f3f"
       opacity="1"
       d="m 99.289389,64.850598 c 1.220001,-1.09 2.390001,-2.23 3.530001,-3.39 0.02,0.59 0.07,1.78 0.09,2.37 0.72,0.23 2.16,0.69 2.88,0.92 -0.95,0.32 -1.9,0.64 -2.85,0.96 -0.03,0.64 -0.07,1.92 -0.1,2.56 -1.05,-1.28 -2.21,-2.46 -3.550001,-3.42 z"
       id="path1331"
       style="fill:#6ececb;fill-opacity:1" />
  </g>
</svg>
